<svg xmlns="http://www.w3.org/2000/svg" version="1.1" xmlns:xlink="http://www.w3.org/1999/xlink" xmlns:svgjs="http://svgjs.dev/svgjs" width="100" height="99" viewBox="0 0 1000 999"><g transform="matrix(1,0,0,1,-0.215743440233382,-0.21552769679306039)"><svg viewBox="0 0 343 343" data-background-color="#ffffff" preserveAspectRatio="xMidYMid meet" height="999" width="1000" xmlns="http://www.w3.org/2000/svg" xmlns:xlink="http://www.w3.org/1999/xlink"><g id="tight-bounds" transform="matrix(1,0,0,1,0.0740000000000407,0.07400000000001228)"><svg viewBox="0 0 342.85155851775386 342.85155851775386" height="342.85155851775386" width="342.85155851775386"><g><svg></svg></g><g><svg viewBox="0 0 342.85155851775386 342.85155851775386" height="342.85155851775386" width="342.85155851775386"><g><path d="M0 171.426c0-94.676 76.75-171.426 171.426-171.426 94.676 0 171.426 76.75 171.426 171.426 0 94.676-76.75 171.426-171.426 171.426-94.676 0-171.426-76.75-171.426-171.426zM171.426 325.619c85.159 0 154.194-69.035 154.193-154.193 0-85.159-69.035-154.194-154.193-154.194-85.159 0-154.194 69.035-154.194 154.194 0 85.159 69.035 154.194 154.194 154.193z" data-fill-palette-color="tertiary" fill="#dd1d43" stroke="transparent"></path><ellipse rx="164.56874808852186" ry="164.56874808852186" cx="171.42577925887693" cy="171.42577925887693" fill="#dd1d43" stroke="transparent" stroke-width="0" fill-opacity="1" data-fill-palette-color="tertiary"></ellipse></g><g transform="matrix(1,0,0,1,64.84655864529837,75.88318859716134)"><svg viewBox="0 0 213.1584412271571 191.0851813234312" height="191.0851813234312" width="213.1584412271571"><g><svg viewBox="0 0 213.1584412271571 191.0851813234312" height="191.0851813234312" width="213.1584412271571"><g><svg viewBox="0 0 213.15844122715714 191.08518132343121" height="191.0851813234312" width="213.1584412271571"><g><svg viewBox="0 0 213.15844122715714 191.08518132343121" height="191.08518132343121" width="213.15844122715714"><g id="textblocktransform"><svg viewBox="0 0 213.15844122715714 191.08518132343121" height="191.08518132343121" width="213.15844122715714" id="textblock"><g><svg viewBox="0 0 213.15844122715714 191.08518132343121" height="191.08518132343121" width="213.15844122715714"><g transform="matrix(1,0,0,1,0,0)"><svg width="213.15844122715714" viewBox="-1.399999976158142 -36.650001525878906 49.25 44.150001525878906" height="191.08518132343121" data-palette-color="#ffffff"><path d="M-1.4 7.5L-1.4 7.5-1.4 2.35Q2.1 2.15 4.33-0.05 6.55-2.25 6.55-6.9L6.55-6.9 6.55-36.25 12.05-36.25 12.05-6.75Q12.05-3.4 11.05-0.8 10.05 1.8 8.25 3.63 6.45 5.45 3.98 6.43 1.5 7.4-1.4 7.5ZM35.75-17.35L47.85-17.35 47.85-2.15Q45.75-0.95 42.85-0.28 39.95 0.4 36.95 0.4L36.95 0.4Q32.65 0.4 29.22-0.95 25.8-2.3 23.35-4.67 20.9-7.05 19.6-10.3 18.3-13.55 18.3-17.4L18.3-17.4Q18.3-21.65 19.82-25.18 21.35-28.7 23.97-31.25 26.6-33.8 30.02-35.23 33.45-36.65 37.3-36.65L37.3-36.65Q39.9-36.65 42.75-35.98 45.6-35.3 47.7-34.05L47.7-34.05 45.05-29.6Q44.3-30.05 43.32-30.4 42.35-30.75 41.3-31 40.25-31.25 39.2-31.38 38.15-31.5 37.2-31.5L37.2-31.5Q34.55-31.5 32.1-30.45 29.65-29.4 27.8-27.55 25.95-25.7 24.85-23.2 23.75-20.7 23.75-17.8L23.75-17.8Q23.75-15.15 24.72-12.8 25.7-10.45 27.45-8.65 29.2-6.85 31.65-5.8 34.1-4.75 37.05-4.75L37.05-4.75Q38.2-4.75 39.77-4.98 41.35-5.2 42.8-5.75L42.8-5.75 42.8-12.65 35.75-12.65 35.75-17.35Z" opacity="1" transform="matrix(1,0,0,1,0,0)" fill="#ffffff" class="wordmark-text-0" data-fill-palette-color="quaternary" id="text-0"></path></svg></g></svg></g></svg></g></svg></g><g></g></svg></g></svg></g></svg></g></svg></g><defs></defs></svg><rect width="342.85155851775386" height="342.85155851775386" fill="none" stroke="none" visibility="hidden"></rect></g></svg></g></svg>